<svg width="200" height="40" viewBox="0 0 200 40" fill="none" xmlns="http://www.w3.org/2000/svg">
<path d="M8.73993 2.83583C8.98787 3.33171 9.12734 3.7966 9.15833 4.2305C9.22032 4.66439 9.25131 5.45471 9.25131 6.60143C9.25131 7.74816 8.73993 11.8237 7.71717 18.828C6.69441 25.8324 6.18304 30.7447 6.18304 33.565C6.18304 36.3544 6.39998 38.2604 6.83388 39.2832C4.19951 38.6014 2.40193 37.7026 1.44116 36.5868C0.480386 35.4401 0 33.8595 0 31.845C0 30.6672 0.325423 27.6764 0.976269 22.8726C2.123 14.9075 2.69636 8.73993 2.69636 4.36996C2.69636 3.44018 2.63438 2.16948 2.51041 0.557866C4.86585 0.681837 6.58594 1.05375 7.67068 1.6736C8.13557 1.92154 8.49199 2.30895 8.73993 2.83583Z" fill="white"/>
<path d="M21.4663 27.3355C21.4663 32.5113 22.9849 35.0992 26.0222 35.0992C27.1999 35.0992 28.3932 34.6963 29.6019 33.8905C30.8106 33.0847 31.8643 31.9689 32.7631 30.5433C33.8789 30.7912 34.4367 31.3646 34.4367 32.2634C33.135 34.5258 31.5389 36.1374 29.6484 37.0982C27.7578 38.059 25.8673 38.5394 23.9767 38.5394C21.4353 38.5394 19.2658 37.6096 17.4682 35.75C15.7017 33.8595 14.8184 31.1321 14.8184 27.568C14.8184 23.012 16.0736 19.1225 18.584 15.8992C21.0944 12.645 24.4881 11.0179 28.7651 11.0179C31.1515 11.0179 32.9491 11.6068 34.1578 12.7845C35.3665 13.9312 35.9709 15.3104 35.9709 16.922C35.9709 18.5026 35.475 19.8818 34.4832 21.0595C33.5224 22.2372 32.2827 22.8261 30.7641 22.8261C30.0203 22.8261 29.2764 22.6711 28.5326 22.3612C28.9975 21.8343 29.4314 21.013 29.8343 19.8973C30.2372 18.7506 30.4387 17.6968 30.4387 16.736C30.4387 14.8455 29.6174 13.9002 27.9748 13.9002C26.0532 13.9002 24.4881 15.3104 23.2794 18.1307C22.0706 20.951 21.4663 24.0193 21.4663 27.3355Z" fill="white"/>
<path d="M54.6093 14.5511C52.5948 14.5511 50.7972 15.9147 49.2166 18.6421C47.636 21.3384 46.8456 24.0348 46.8456 26.7312C46.8456 32.3718 48.3023 35.1922 51.2156 35.1922C53.2921 35.1922 54.9812 33.844 56.2829 31.1476C57.5846 28.4203 58.2355 25.3675 58.2355 21.9893C58.2355 17.0305 57.0267 14.5511 54.6093 14.5511ZM50.6577 10.367C50.9987 10.367 51.3086 10.4755 51.5875 10.6925C51.8975 10.8784 52.0524 11.0799 52.0524 11.2968C48.9222 13.4663 47.0471 16.4881 46.4272 20.3622C47.0781 18.6266 47.8684 17.1234 48.7982 15.8527C49.759 14.582 50.7507 13.6213 51.7735 12.9704C53.726 11.7617 55.6321 11.1574 57.4916 11.1574C59.3512 11.1574 60.9318 12.0716 62.2335 13.9002C63.5352 15.7288 64.186 18.1772 64.186 21.2455C64.186 24.6857 63.4887 27.8469 62.094 30.7292C60.5444 33.9835 58.3439 36.2304 55.4926 37.4701C53.881 38.183 52.1144 38.5394 50.1929 38.5394C47.4965 38.5394 45.1411 37.5011 43.1265 35.4246C41.143 33.3171 40.1512 30.3108 40.1512 26.4057C40.1512 22.4697 41.112 19.014 43.0336 16.0387C44.9551 13.0324 47.4965 11.1419 50.6577 10.367Z" fill="white"/>
<path d="M87.3463 11.0179C89.1748 11.0179 90.4765 11.5913 91.2514 12.738C92.0572 13.8537 92.4601 15.3879 92.4601 17.3404C92.4601 19.2619 92.1501 21.9738 91.5303 25.476C90.9414 28.9781 90.647 31.535 90.647 33.1467C90.647 34.7273 90.8484 35.8895 91.2514 36.6333C91.6543 37.3462 92.3361 37.966 93.2969 38.4929C92.894 38.5239 92.3206 38.5394 91.5768 38.5394C88.9734 38.5394 87.1138 38.1365 85.9981 37.3307C84.9134 36.5248 84.371 35.1147 84.371 33.1002C84.371 31.9534 84.6809 29.722 85.3008 26.4057C85.9206 23.0585 86.2305 20.5636 86.2305 18.921C86.2305 16.8755 85.6107 15.8527 84.371 15.8527C83.6581 15.8527 82.8523 16.2711 81.9536 17.1079C81.0548 17.9447 80.187 19.0915 79.3502 20.5481C78.5134 21.9738 77.816 23.8179 77.2582 26.0803C76.7003 28.3428 76.4214 30.6052 76.4214 32.8677C76.4214 35.0992 76.5143 36.7573 76.7003 37.842C75.7085 37.904 75.0577 37.935 74.7478 37.935C72.9812 37.935 71.7105 37.6251 70.9357 37.0052C70.1608 36.3854 69.7734 35.3626 69.7734 33.937C69.7734 33.3171 70.0989 30.9307 70.7497 26.7777C71.4006 22.6246 71.726 19.3239 71.726 16.8755C71.726 14.3961 71.4625 12.1181 70.9357 10.0416C73.1981 10.7545 74.7788 11.7772 75.6775 13.1099C76.5763 14.4116 77.0257 15.9147 77.0257 17.6193C77.0257 19.2929 76.8398 21.2455 76.4679 23.4769C77.4906 20.0058 79.1022 17.0615 81.3027 14.644C83.5032 12.2266 85.5177 11.0179 87.3463 11.0179Z" fill="white"/>
<path d="M107.568 14.737C107.568 15.2019 107.18 17.6503 106.406 22.0823C105.662 26.4832 105.274 30.1249 105.243 33.0072C105.243 35.8585 105.429 37.7026 105.801 38.5394C103.384 37.9195 101.757 36.9897 100.92 35.75C100.083 34.4793 99.6648 32.6353 99.6648 30.2178C99.6648 28.9162 99.9127 26.5607 100.409 23.1515C100.904 19.7423 101.152 17.0925 101.152 15.2019C101.152 13.3113 101.059 11.8547 100.873 10.8319C101.555 10.7699 102.191 10.739 102.78 10.739C104.577 10.739 105.817 11.0489 106.499 11.6687C107.211 12.2576 107.568 13.2804 107.568 14.737ZM108.265 6.64793C107.397 6.77189 106.638 6.83388 105.987 6.83388C102.795 6.83388 101.199 5.71814 101.199 3.48667C101.199 2.68086 101.431 1.58062 101.896 0.185954C102.764 0.0619845 103.523 0 104.174 0C107.366 0 108.963 1.11574 108.963 3.34721C108.963 4.15302 108.73 5.25326 108.265 6.64793Z" fill="white"/>
<path d="M119.529 27.3355C119.529 32.5113 121.048 35.0992 124.085 35.0992C125.263 35.0992 126.456 34.6963 127.665 33.8905C128.873 33.0847 129.927 31.9689 130.826 30.5433C131.942 30.7912 132.499 31.3646 132.499 32.2634C131.198 34.5258 129.602 36.1374 127.711 37.0982C125.821 38.059 123.93 38.5394 122.039 38.5394C119.498 38.5394 117.329 37.6096 115.531 35.75C113.764 33.8595 112.881 31.1321 112.881 27.568C112.881 23.012 114.136 19.1225 116.647 15.8992C119.157 12.645 122.551 11.0179 126.828 11.0179C129.214 11.0179 131.012 11.6068 132.221 12.7845C133.429 13.9312 134.034 15.3104 134.034 16.922C134.034 18.5026 133.538 19.8818 132.546 21.0595C131.585 22.2372 130.345 22.8261 128.827 22.8261C128.083 22.8261 127.339 22.6711 126.595 22.3612C127.06 21.8343 127.494 21.013 127.897 19.8973C128.3 18.7506 128.501 17.6968 128.501 16.736C128.501 14.8455 127.68 13.9002 126.037 13.9002C124.116 13.9002 122.551 15.3104 121.342 18.1307C120.133 20.951 119.529 24.0193 119.529 27.3355Z" fill="white"/>
<path d="M152.164 4.32348C152.226 3.11476 152.35 2.18498 152.536 1.53414C155.883 2.092 159.897 2.37094 164.577 2.37094C169.257 2.37094 174.154 1.81307 179.267 0.697334C178.74 4.6334 176.741 6.78739 173.27 7.1593C172.186 7.31427 170.512 7.46923 168.249 7.62419C168.187 8.52298 167.676 12.459 166.715 19.4324C165.755 26.3748 165.274 31.1631 165.274 33.7975C165.274 36.4319 165.491 38.2604 165.925 39.2832C163.291 38.6014 161.493 37.7026 160.532 36.5868C159.572 35.4401 159.091 34.0299 159.091 32.3563C159.091 30.6827 159.479 27.0566 160.253 21.4779C161.059 15.8682 161.54 11.3588 161.695 7.94962C159.184 8.07359 156.72 8.13557 154.303 8.13557C152.877 8.13557 152.164 6.86487 152.164 4.32348Z" fill="white"/>
<path d="M188.843 37.842C187.851 38.2759 186.813 38.4929 185.728 38.4929C184.643 38.4929 184.039 38.2604 183.915 37.7955C183.419 35.812 182.846 32.8522 182.195 28.9162C181.544 24.9491 180.878 21.4934 180.196 18.5491C179.545 15.5738 178.755 13.3268 177.825 11.8082C179.529 11.0024 180.893 10.5995 181.916 10.5995C182.939 10.5995 183.713 10.8319 184.24 11.2968C184.767 11.7617 185.201 12.6915 185.542 14.0862C185.914 15.4498 186.177 16.5811 186.332 17.4799C186.766 20.4552 186.983 22.1133 186.983 22.4542C186.983 22.7951 187.107 24.1898 187.355 26.6382C187.603 29.0556 187.789 30.6517 187.913 31.4266C193.43 20.7341 196.188 13.5903 196.188 9.99513C198.729 11.2968 200 12.707 200 14.2256C200 15.4653 199.349 17.3094 198.047 19.7578C196.777 22.1752 195.165 25.1196 193.213 28.5907C191.291 32.0309 189.834 35.1147 188.843 37.842Z" fill="white"/>
</svg>
