<svg width="20" height="22" viewBox="0 0 20 22" fill="none" xmlns="http://www.w3.org/2000/svg">
<path d="M11.4016 13.9257L13.2379 12.2557L20 19.3882L18.1638 21.0582L11.4016 13.9257Z" fill="black"/>
<path fill-rule="evenodd" clip-rule="evenodd" d="M7.78709 15.4789C12.0878 15.4789 15.5742 12.0642 15.5742 7.85192C15.5742 3.63964 12.0878 0.224915 7.78709 0.224915C3.4864 0.224915 0 3.63964 0 7.85192C0 12.0642 3.4864 15.4789 7.78709 15.4789ZM7.78682 13.191C10.7973 13.191 13.2378 10.8007 13.2378 7.85214C13.2378 4.90354 10.7973 2.51323 7.78682 2.51323C4.77634 2.51323 2.33586 4.90354 2.33586 7.85214C2.33586 10.8007 4.77634 13.191 7.78682 13.191Z" fill="black"/>
</svg>
